<?xml version="1.0" ?><svg viewBox="0 0 64 64" xmlns="http://www.w3.org/2000/svg"><title/><g data-name="Layer 8" id="Layer_8"><rect height="2" width="18" x="13" y="51"/><path d="M29,48a7,7,0,0,0-14,0v1H29Z"/><rect height="2" width="2" x="3" y="23"/><path d="M5,17v4H6a1,1,0,0,1,1,1v4a1,1,0,0,1-1,1H5v2H6a1,1,0,0,1,1,1v4a1,1,0,0,1-1,1H5v2H6a1,1,0,0,1,1,1v4a1,1,0,0,1-1,1H5v2H6a1,1,0,0,1,1,1v4a1,1,0,0,1-1,1H5v2H6a1,1,0,0,1,1,1v4a1,1,0,0,1-1,1H5v2H37V17ZM33,54a1,1,0,0,1-1,1H12a1,1,0,0,1-1-1V50a1,1,0,0,1,1-1h1V48a9,9,0,0,1,6-8.47V38a3,3,0,0,1,6,0v1.53A9,9,0,0,1,31,48v1h1a1,1,0,0,1,1,1Zm2-34v8a1,1,0,0,1-1,1H10a1,1,0,0,1-1-1V20a1,1,0,0,1,1-1H34A1,1,0,0,1,35,20Z"/><path d="M23,39.06V38a1,1,0,0,0-2,0v1.06a8.36,8.36,0,0,1,2,0Z"/><path d="M33,21H11v6H33Zm-2,4H13V23H31Z"/><rect height="2" width="2" x="3" y="31"/><rect height="2" width="2" x="3" y="39"/><rect height="2" width="2" x="3" y="55"/><path d="M57,53a1,1,0,0,1-.71-.29L54.59,51H53a1,1,0,0,1-.71-.29L50.59,49H48a1,1,0,0,1-1-1V38a1,1,0,0,0-2,0V61H60V54.41L58.59,53Z"/><rect height="2" width="2" x="3" y="47"/><rect height="4" width="26" x="31" y="7"/><path d="M61,47V3H27V15H41v2H39v2h2v2H39v2h2v2H39v2h2v2H39v2h2v2H39v2h2v2H39v2h2v2H39v6h4V38a3,3,0,0,1,6,0v9ZM45,33H43V31h2Zm0-4H43V27h2Zm0-4H43V23h2Zm0-4H43V19h2Zm0-4H43V15h2ZM59,41H51V39h8Zm0-4H51V35h8Zm0-4H47V31H59Zm0-4H47V27H59Zm0-4H47V23H59Zm0-4H47V19H59Zm0-4H47V15H59Zm0-5a1,1,0,0,1-1,1H30a1,1,0,0,1-1-1V6a1,1,0,0,1,1-1H58a1,1,0,0,1,1,1Z"/></g></svg>