<?xml version="1.0" ?><svg id="Pie" viewBox="0 0 512 512" xmlns="http://www.w3.org/2000/svg"><title/><path d="M502.53,318.9a51.1187,51.1187,0,0,0-37.47-45.26c-.03-.01-.07-.02-.1-.03a36.2281,36.2281,0,0,1-23.81-19.69c-21.14-45.19-68.69-105.49-172.88-112.43a159.1442,159.1442,0,0,0-21.06.01C143.33,148.42,95.76,208.4,74.54,253.54a35.8086,35.8086,0,0,1-27.28,20.07,28.2576,28.2576,0,0,0-4.47.92,50.9388,50.9388,0,0,0,16.24,99.22c1.1,0,2.18-.04,3.25-.11a6.5229,6.5229,0,0,0,1.83,3.77c27.4,27.55,35.09,69.71,36.11,76.08.66,13.78,17.01,24.99,48.63,33.31,28.57,7.52,66.4,11.66,106.51,11.66,39.92,0,77.62-4.11,106.14-11.56,31.36-8.2,47.82-19.22,48.96-32.78a.0749.0749,0,0,1,.01-.05c.07-.47,7.05-47.34,36.21-76.66a6.5208,6.5208,0,0,0,1.83-3.77c1.07.07,2.14.11,3.23.11A50.9351,50.9351,0,0,0,502.53,318.9ZM315.24,196.06a5.5,5.5,0,0,1-.42,7.76L291.4,224.85a5.5022,5.5022,0,0,1-7.35-8.19l23.42-21.02A5.5034,5.5034,0,0,1,315.24,196.06Zm-32.47-22.49a5.4985,5.4985,0,1,1,7.35,8.18l-72.95,65.48a5.439,5.439,0,0,1-3.67,1.41,5.5,5.5,0,0,1-3.68-9.59Zm-9.21,66.95-13.6,12.41a5.5,5.5,0,1,1-7.42-8.12l13.6-12.42a5.5035,5.5035,0,0,1,7.42,8.13Zm-67.44-40.01,24.18-21.7a5.4985,5.4985,0,1,1,7.35,8.18L213.46,208.7a5.4989,5.4989,0,0,1-7.34-8.19ZM397.68,451.66a6.5926,6.5926,0,0,0-.16,1.18c-.32,6.79-16.12,15.42-39.31,21.48-27.48,7.18-64,11.14-102.85,11.14-39.02,0-75.68-3.99-103.2-11.23-26.75-7.04-38.84-15.87-38.95-21.5a8.07,8.07,0,0,0-.08-.86c-.75-4.86-7.63-45.14-32.7-75.75a57.6966,57.6966,0,0,0,12.92-7.24,8.2346,8.2346,0,0,1,9.91,0,57.467,57.467,0,0,0,68.63,0,8.2346,8.2346,0,0,1,9.91,0,57.4667,57.4667,0,0,0,68.63,0,8.2351,8.2351,0,0,1,9.91,0,57.4667,57.4667,0,0,0,68.63,0,8.2346,8.2346,0,0,1,9.91,0,57.467,57.467,0,0,0,68.63,0,8.2346,8.2346,0,0,1,9.91,0,57.7646,57.7646,0,0,0,12.93,7.24C405.41,406.53,398.54,446.14,397.68,451.66Z"/><path d="M250.3,115.4883a6,6,0,0,1-6-6c0-10.2754,6.458-15.624,11.1729-19.5293,4.4863-3.7158,6.8271-5.86,6.8271-10.2871s-2.3408-6.5713-6.8271-10.2871C250.7578,65.48,244.3,60.1309,244.3,49.8555s6.458-15.6221,11.1729-19.5274C259.959,26.6133,262.3,24.4688,262.3,20.043a6,6,0,0,1,12,0c0,10.2744-6.458,15.622-11.1728,19.5273C258.6406,43.2852,256.3,45.43,256.3,49.8555s2.3408,6.5713,6.8272,10.2871C267.8418,64.0479,274.3,69.3965,274.3,79.6719s-6.458,15.624-11.1728,19.5293c-4.4864,3.7158-6.8272,5.86-6.8272,10.2871A6,6,0,0,1,250.3,115.4883Z"/><path d="M290.0273,115.4883a6,6,0,0,1-6-6c0-10.2754,6.4581-15.624,11.1729-19.5293,4.4863-3.7158,6.8271-5.86,6.8271-10.2871s-2.3408-6.5713-6.8271-10.2871c-4.7148-3.9053-11.1729-9.2539-11.1729-19.5293S290.4854,34.2334,295.2,30.3281c4.4863-3.7148,6.8271-5.8593,6.8271-10.2851a6,6,0,0,1,12,0c0,10.2744-6.458,15.622-11.1728,19.5273-4.4863,3.7149-6.8272,5.8594-6.8272,10.2852s2.3409,6.5713,6.8272,10.2871c4.7148,3.9053,11.1728,9.2539,11.1728,19.5293s-6.458,15.624-11.1728,19.5293c-4.4863,3.7158-6.8272,5.86-6.8272,10.2871A6,6,0,0,1,290.0273,115.4883Z"/><path d="M210.5732,115.4883a6,6,0,0,1-6-6c0-10.2754,6.458-15.624,11.1729-19.5293,4.4863-3.7158,6.8271-5.86,6.8271-10.2871s-2.3408-6.5713-6.8271-10.2871c-4.7149-3.9053-11.1729-9.2539-11.1729-19.5293s6.458-15.6221,11.1729-19.5274c4.4863-3.7148,6.8271-5.8593,6.8271-10.2851a6,6,0,0,1,12,0c0,10.2744-6.458,15.622-11.1728,19.5273-4.4863,3.7149-6.8272,5.8594-6.8272,10.2852s2.3409,6.5713,6.8272,10.2871c4.7148,3.9053,11.1728,9.2539,11.1728,19.5293s-6.458,15.624-11.1728,19.5293c-4.4863,3.7158-6.8272,5.86-6.8272,10.2871A6,6,0,0,1,210.5732,115.4883Z"/></svg>