<?xml version="1.0" ?><svg viewBox="0 0 32 32" xmlns="http://www.w3.org/2000/svg"><title/><g data-name="Clock" id="Clock-2"><path d="M27,17A11,11,0,0,0,17,6.05V5.72a2,2,0,1,0-2,0v.33a11,11,0,0,0-4.55,20.43l-1.28,2A1,1,0,0,0,10,30a1,1,0,0,0,.84-.46l1.42-2.2a10.87,10.87,0,0,0,7.46,0l1.42,2.2a1,1,0,0,0,1.38.3,1,1,0,0,0,.3-1.38l-1.28-2A11,11,0,0,0,27,17ZM16,26a9,9,0,1,1,9-9A9,9,0,0,1,16,26Z"/><path d="M16,12a1,1,0,0,0,1-1V10a1,1,0,0,0-2,0v1A1,1,0,0,0,16,12Z"/><path d="M23,16H22a1,1,0,0,0,0,2h1a1,1,0,0,0,0-2Z"/><path d="M16,22a1,1,0,0,0-1,1v1a1,1,0,0,0,2,0V23A1,1,0,0,0,16,22Z"/><path d="M10,16H9a1,1,0,0,0,0,2h1a1,1,0,0,0,0-2Z"/><path d="M19,16H16.33l-3.74-2.8a1,1,0,1,0-1.2,1.6l4,3a1,1,0,0,0,.6.2h3a1,1,0,0,0,0-2Z"/></g></svg>