<svg id="Layer_1" data-name="Layer 1" xmlns="http://www.w3.org/2000/svg" viewBox="0 0 512 512"><defs><style>.cls-1{fill:none;stroke:#000;stroke-miterlimit:10;stroke-width:12px;}</style></defs><path d="M397.6,146.7l-1.8-1.7h18.4l8.5,7.8L445.2,130,404.4,89.7,381.2,112l8.8,9.2v18.6l-5-4.7c-31.3-28.3-70-45.2-113-48.9V48H240V86h-2c-43.7,3-85,22.5-116,53V121.2l8.9-9.2L108,89.8,67.2,130l22.5,22.8,8.5-7.8H116c-.3,0-.7.7-1,1.1A188.1,188.1,0,0,0,64,274.6C64,379,150.1,464,256.1,464,361.9,464,448,379.1,448,274.7A187.79,187.79,0,0,0,397.6,146.7Zm-141.3,299c-95.5,0-173.1-76.7-173.1-170.9s77.7-170.9,173.1-170.9,173.1,76.7,173.1,170.9S351.8,445.7,256.3,445.7Z"/><path d="M264,257.3V128H248V257.4c-12.5,4.3-24,16.5-24,30.3a31.37,31.37,0,0,0,24,30.5l8,17.8h0l8-17.8a31.37,31.37,0,0,0,24-30.5C288,273.2,277.5,261,264,257.3Z"/><circle class="cls-1" cx="256" cy="274.8" r="170.9"/></svg>